<?xml version="1.0" encoding="UTF-8"?>
<svg id="Layer_1" data-name="Layer 1" xmlns="http://www.w3.org/2000/svg" width="48" height="48" viewBox="0 0 48 48">
                    <style>
                        path, rect, circle, ellipse, line, polyline, polygon { 
                            fill: currentColor;
                        }
                        @media (prefers-color-scheme: dark) {
                            path, rect, circle, ellipse, line, polyline, polygon { 
                                fill: #fff;
                            }
                        }
                    </style>
  <defs>
    <style>
      .cls-1 {
        fill: #ec1c24;
      }
    </style>
  </defs>
  <path id="Vault_Symbol" data-name="Vault Symbol" class="cls-1" d="M24,.5C11.02.5.5,11.02.5,24s10.52,23.5,23.5,23.5,23.5-10.52,23.5-23.5S36.98.5,24,.5ZM13.69,40.86c-.88-.56-1.57-1.45-1.84-2.53-.14-.56-.17-1.11-.11-1.64.08-.8.47-1.96.47-1.96,0,0,.18-.62.5-1.63.74-2.32,2.15-6.68,3.3-10.21,1.65-5.06,4.61-13.88,4.72-14.21.21-.63.36-.99.6-1.35h0c.11-.17.24-.33.39-.48.26-.27.58-.49.93-.65.43-.2.98-.32,1.36-.32s.93.11,1.36.32c.35.16.66.39.93.65.14.15.27.31.39.48h0c.23.36.39.71.6,1.35.11.33,3.06,9.15,4.72,14.21,1.15,3.53,2.57,7.89,3.3,10.21.32,1.01.5,1.63.5,1.63,0,0,.4,1.16.47,1.96.06.53.03,1.08-.11,1.64-.28,1.13-1.03,2.05-1.96,2.61h0c-2.99,1.79-6.47,2.81-10.19,2.81s-7.29-1.05-10.31-2.89ZM29.57,7.91c-.21-.47-.65-1.27-.95-1.65h0c-.15-.19-.31-.38-.48-.55-.48-.48-1.05-.89-1.68-1.19-.77-.37-1.78-.57-2.46-.57s-1.69.21-2.46.57c-.63.3-1.2.7-1.68,1.19-.17.17-.33.36-.48.55h0c-.3.39-.75,1.19-.95,1.65-.2.46-11.43,25.79-11.58,26.12-1.94-3.17-3.05-6.91-3.05-10.92,0-5.31,2.1-10.16,5.41-13.82,1.7-1.88,3.76-3.45,6-4.61,2.76-1.42,6.35-2.23,8.79-2.23s6.03.8,8.79,2.23c2.24,1.16,4.3,2.72,6,4.61,3.31,3.66,5.41,8.5,5.41,13.82,0,4.01-1.12,7.75-3.06,10.92,0,0-11.37-25.65-11.58-26.12Z"/>
</svg>